<?xml version="1.0" encoding="utf-8"?>
<!-- Generator: Adobe Illustrator 21.0.0, SVG Export Plug-In . SVG Version: 6.00 Build 0)  -->
<svg version="1.1" id="Layer_1" xmlns="http://www.w3.org/2000/svg" xmlns:xlink="http://www.w3.org/1999/xlink" x="0px" y="0px"
	 viewBox="0 0 60 60" style="enable-background:new 0 0 60 60;" xml:space="preserve">
<style type="text/css">
	.st0{fill:#4C5068;}
</style>
<g>
	<g>
		<g>
			<g>
				<path class="st0" d="M49.8,30c0,0,0-0.4-0.1-1.2c0-0.4,0-0.9-0.2-1.5c-0.1-0.6-0.2-1.3-0.4-2c-0.1-0.4-0.2-0.8-0.3-1.2
					c-0.2-0.4-0.3-0.8-0.5-1.2c-0.1-0.4-0.4-0.9-0.6-1.3c-0.2-0.4-0.4-0.9-0.7-1.4c-1.1-1.9-2.7-3.8-4.8-5.5c-2.2-1.7-4.9-3-8-3.7
					s-6.7-0.5-10.1,0.6c-1.7,0.6-3.4,1.4-5,2.4c-1.5,1.1-3,2.4-4.2,3.9s-2.2,3.3-3,5.2c-0.2,0.5-0.4,0.9-0.5,1.4s-0.3,1-0.4,1.5
					c-0.2,1-0.4,2-0.4,3.1c-0.2,4.2,1,8.3,3.2,11.6c1.1,1.6,2.5,3.1,3.9,4.3c1.5,1.2,3.2,2.1,4.8,2.9c1.7,0.7,3.5,1.1,5.2,1.4
					c1.7,0.1,3.5,0.2,5.1-0.1c1.6-0.2,3.2-0.7,4.6-1.2c1.4-0.6,2.7-1.3,3.9-2.2c2.3-1.6,4-3.6,5.2-5.5s2-3.8,2.4-5.3
					c0.1-0.4,0.2-0.8,0.3-1.1c0.1-0.4,0.1-0.7,0.2-1c0.1-0.3,0.1-0.6,0.1-0.8c0-0.3,0-0.5,0-0.7C49.8,30.4,49.8,30,49.8,30
					s0,0.4,0,1.3c0,0.2,0,0.4,0,0.7c0,0.3-0.1,0.5-0.1,0.8c-0.1,0.6-0.2,1.3-0.4,2.1c-0.3,1.6-1,3.5-2.1,5.4c-1.1,2-2.8,4.1-5.1,5.8
					c-2.3,1.8-5.2,3.3-8.6,3.9c-0.4,0.1-0.9,0.1-1.3,0.2c-0.4,0-0.9,0.1-1.3,0.1c-0.9,0.1-1.8,0-2.7,0c-1.8-0.2-3.7-0.5-5.5-1.2
					c-3.6-1.3-7.1-3.9-9.5-7.3C12,40.1,11,38.1,10.3,36c-0.6-2.1-0.9-4.3-0.9-6.5s0.5-4.4,1.2-6.5s1.8-4,3.1-5.6
					c2.6-3.3,6.1-5.7,9.7-6.9s7.4-1.2,10.7-0.5s6.2,2.2,8.4,4s3.8,3.9,4.9,5.8c1.1,2,1.7,3.8,2,5.3c0.2,0.8,0.3,1.5,0.3,2
					c0.1,0.6,0.1,1.1,0.1,1.5C49.8,29.6,49.8,30,49.8,30z"/>
			</g>
		</g>
	</g>
	<g>
		<g>
			<g>
				<path class="st0" d="M23.8,23.3c0,0,0.1-0.2,0.2-0.6s0.2-1.1,0-1.8c-0.2-0.7-0.7-1.4-1.5-1.4s-1.8,0.6-2.3,1.6
					c-0.6,0.9-0.7,2.1-0.4,2.9c0.3,0.8,1.2,1,1.9,0.8c0.7-0.2,1.3-0.6,1.6-0.9C23.6,23.5,23.8,23.3,23.8,23.3s-0.1,0.3-0.3,0.7
					c-0.2,0.4-0.7,1-1.5,1.4c-0.4,0.2-1,0.3-1.6,0.2c-0.6-0.1-1.2-0.5-1.6-1.1c-0.7-1.2-0.6-2.8,0.2-4.1c0.7-1.3,2.1-2.2,3.5-2.1
					c0.7,0.1,1.3,0.4,1.7,0.9c0.4,0.5,0.5,1,0.5,1.5c0,0.9-0.3,1.6-0.5,2C23.9,23.1,23.8,23.3,23.8,23.3z"/>
			</g>
		</g>
	</g>
	<g>
		<g>
			<g>
				<path class="st0" d="M44.5,36.6c0,0,0.1-0.3,0.2-0.9c0.1-0.5,0.2-1.4,0.1-2.3c-0.1-0.5-0.2-1-0.5-1.3s-0.7-0.4-1.2-0.2
					c-1,0.4-1.9,1.7-2.5,3c-0.6,1.4-0.8,2.9-0.5,4c0.2,0.5,0.5,0.8,0.9,0.8s0.9-0.2,1.3-0.5c0.8-0.6,1.3-1.3,1.6-1.8
					C44.4,36.9,44.5,36.6,44.5,36.6s-0.1,0.3-0.3,0.9c-0.2,0.6-0.6,1.4-1.4,2.2c-0.4,0.4-0.9,0.8-1.7,0.9c-0.4,0.1-0.8,0-1.2-0.3
					c-0.4-0.2-0.7-0.6-0.8-1c-0.7-1.6-0.4-3.3,0.2-4.9c0.3-0.8,0.8-1.6,1.3-2.2c0.5-0.6,1.2-1.2,2-1.5c0.4-0.1,0.9-0.2,1.3-0.1
					c0.4,0.1,0.8,0.4,1,0.7c0.4,0.6,0.5,1.3,0.5,1.8c0,1.1-0.3,1.9-0.6,2.5C44.7,36.3,44.5,36.6,44.5,36.6z"/>
			</g>
		</g>
	</g>
	<g>
		<g>
			<g>
				<path class="st0" d="M23.5,38.5c0,0-0.1-0.7-0.8-1.2c-0.4-0.2-0.9-0.3-1.4-0.1s-0.8,0.7-0.9,1.2c0,0.6,0.3,1.1,0.8,1.3
					s1,0.2,1.4,0C23.4,39.3,23.5,38.5,23.5,38.5s0.1,0.2,0.1,0.5s-0.1,0.8-0.5,1.3s-1.3,0.8-2.2,0.6c-0.9-0.2-1.8-1.2-1.7-2.4
					c0-1.2,0.9-2.1,1.8-2.3s1.7,0.2,2.1,0.6c0.4,0.5,0.5,1,0.5,1.3C23.5,38.3,23.5,38.5,23.5,38.5z"/>
			</g>
		</g>
	</g>
	<g>
		<g>
			<g>
				<path class="st0" d="M33.3,30c0,0,0-0.2-0.2-0.6c-0.1-0.4-0.4-0.9-1-1.3c-0.6-0.4-1.4-0.5-2.2-0.2c-0.8,0.3-1.4,1.1-1.5,2
					s0.5,1.8,1.3,2.2c0.8,0.4,1.7,0.2,2.2-0.1c0.6-0.4,0.9-0.9,1.1-1.3C33.3,30.2,33.3,30,33.3,30s0.1,0.2,0,0.7
					c0,0.4-0.2,1.1-0.9,1.8c-0.6,0.6-1.8,1.1-3,0.7c-1.2-0.3-2.3-1.7-2.3-3.2s1.2-2.8,2.4-3.1c1.2-0.3,2.4,0.1,3,0.8
					c0.6,0.6,0.8,1.3,0.8,1.7C33.4,29.8,33.3,30,33.3,30z"/>
			</g>
		</g>
	</g>
	<g>
		<g>
			<g>
				<path class="st0" d="M38.2,19c0,0,0-0.8-0.9-1.3c-0.4-0.2-1-0.3-1.5-0.1c-0.5,0.2-0.9,0.7-0.9,1.3c0,0.6,0.3,1.2,0.8,1.4
					c0.5,0.3,1.1,0.2,1.5,0C38.2,19.9,38.2,19,38.2,19s0.1,0.2,0.1,0.5s-0.1,0.9-0.6,1.4s-1.3,0.9-2.3,0.6c-0.9-0.2-1.8-1.3-1.8-2.5
					s0.9-2.2,1.9-2.4c1-0.2,1.8,0.1,2.3,0.6s0.5,1,0.5,1.3C38.3,18.9,38.2,19,38.2,19z"/>
			</g>
		</g>
	</g>
	<g>
		<g>
			<g>
				<path class="st0" d="M13.9,36.5c0,0-0.1-0.1-0.3-0.4c-0.2-0.3-0.4-0.6-0.7-1.2c-0.5-1-1-2.5-1.2-4.3c-0.1-1.8,0.2-3.4,0.6-4.5
					c0.4-1.1,0.8-1.7,0.8-1.7S13,25.1,13,26.3c-0.1,1.1,0,2.6,0.1,4.3c0.1,1.6,0.3,3.1,0.5,4.2C13.7,35.8,13.9,36.5,13.9,36.5z"/>
			</g>
		</g>
	</g>
	<g>
		<g>
			<g>
				<path class="st0" d="M17.6,41.8c0,0-0.2,0-0.6-0.1c-0.3-0.1-0.8-0.3-1.1-0.7c-0.4-0.4-0.5-0.9-0.6-1.2c-0.1-0.4,0-0.6,0-0.6
					s0.3,0.1,0.6,0.3c0.3,0.2,0.7,0.3,1,0.6s0.4,0.7,0.5,1C17.5,41.5,17.6,41.8,17.6,41.8z"/>
			</g>
		</g>
	</g>
	<g>
		<g>
			<g>
				<path class="st0" d="M45.5,24.4c0,0-0.2-0.6-0.7-1.5c-0.4-0.9-1.1-2.1-2-3.3c-0.9-1.2-1.8-2.3-2.5-3c-0.7-0.7-1.2-1.2-1.2-1.2
					s0.7,0.1,1.6,0.6c1,0.5,2.2,1.4,3.2,2.7c1,1.3,1.4,2.8,1.6,3.8C45.6,23.8,45.5,24.4,45.5,24.4z"/>
			</g>
		</g>
	</g>
	<g>
		<g>
			<g>
				<path class="st0" d="M45.8,29.1c0,0,0-0.6,0-1.2c0-0.7,0.1-1.3,0.1-1.3s0.3,0.5,0.3,1.3C46.1,28.5,45.8,29.1,45.8,29.1z"/>
			</g>
		</g>
	</g>
	<g>
		<g>
			<g>
				<path class="st0" d="M32.3,43.5c0,0,0-0.1-0.2-0.2c-0.1-0.1-0.3,0-0.3,0.2c0,0.1,0.2,0.3,0.3,0.2C32.2,43.6,32.3,43.5,32.3,43.5
					s0.1,0.1-0.1,0.4c-0.1,0-0.2,0.1-0.4,0.1s-0.4-0.3-0.4-0.5c0-0.3,0.2-0.5,0.4-0.5c0.2,0,0.4,0,0.4,0.2
					C32.4,43.3,32.2,43.5,32.3,43.5z"/>
			</g>
		</g>
	</g>
	<g>
		<g>
			<g>
				<path class="st0" d="M34,41.6c0,0,0-0.3-0.4-0.6c-0.2-0.1-0.4-0.2-0.7-0.1c-0.2,0.1-0.5,0.3-0.5,0.6s0.2,0.6,0.4,0.7
					c0.2,0.1,0.5,0.1,0.7,0C34,42,34,41.6,34,41.6s0.1,0.3-0.3,0.8c-0.2,0.2-0.6,0.3-0.9,0.2c-0.4-0.1-0.7-0.5-0.7-1s0.4-0.9,0.7-1
					c0.4-0.1,0.7,0,0.9,0.2C34.2,41.3,34,41.7,34,41.6z"/>
			</g>
		</g>
	</g>
	<g>
		<g>
			<g>
				<path class="st0" d="M31.2,41.4c0,0,0-0.2-0.3-0.4c-0.2-0.2-0.7,0-0.7,0.4s0.4,0.6,0.7,0.4C31.1,41.6,31.2,41.4,31.2,41.4
					s0.1,0.2-0.1,0.5c-0.1,0.1-0.4,0.3-0.7,0.2c-0.3-0.1-0.5-0.4-0.5-0.7c0-0.4,0.3-0.6,0.6-0.7c0.3-0.1,0.5,0,0.7,0.2
					C31.3,41.1,31.1,41.4,31.2,41.4z"/>
			</g>
		</g>
	</g>
	<g>
		<g>
			<g>
				<path class="st0" d="M19.2,30.5c0,0,0-0.2-0.2-0.3c-0.2-0.1-0.5,0-0.5,0.2s0.3,0.4,0.4,0.3C19.2,30.6,19.2,30.4,19.2,30.5
					c0,0,0.1,0.2-0.1,0.4C19,31,18.8,31.1,18.6,31c-0.2-0.1-0.4-0.3-0.4-0.6c0-0.3,0.2-0.5,0.5-0.6c0.2-0.1,0.4,0,0.5,0.2
					C19.3,30.3,19.2,30.5,19.2,30.5z"/>
			</g>
		</g>
	</g>
	<g>
		<g>
			<g>
				<path class="st0" d="M21.7,29.6c0,0,0-0.4-0.4-0.7c-0.2-0.1-0.5-0.2-0.8-0.1S20,29.2,20,29.5c0,0.3,0.2,0.6,0.5,0.8
					c0.3,0.1,0.6,0.1,0.8-0.1C21.7,30,21.6,29.5,21.7,29.6c0,0,0.1,0.4-0.3,0.8c-0.2,0.2-0.6,0.4-1,0.2c-0.4-0.1-0.8-0.6-0.8-1.1
					s0.4-0.9,0.8-1s0.8,0,1,0.2C21.8,29.2,21.6,29.6,21.7,29.6z"/>
			</g>
		</g>
	</g>
	<g>
		<g>
			<g>
				<path class="st0" d="M20.7,32.2c0,0,0-0.2-0.2-0.3c-0.2-0.1-0.5,0-0.5,0.3s0.3,0.4,0.5,0.3C20.7,32.4,20.7,32.2,20.7,32.2
					s0.1,0.2-0.1,0.4c-0.1,0.1-0.3,0.2-0.6,0.2c-0.2-0.1-0.5-0.3-0.5-0.6s0.2-0.5,0.5-0.6c0.2-0.1,0.5,0,0.6,0.2
					C20.8,32,20.7,32.2,20.7,32.2z"/>
			</g>
		</g>
	</g>
	<g>
		<g>
			<g>
				<path class="st0" d="M28.7,15.4c0,0,0-0.2-0.2-0.3s-0.5,0-0.5,0.3s0.3,0.4,0.5,0.3S28.7,15.4,28.7,15.4s0.1,0.2-0.1,0.4
					C28.5,15.9,28.3,16,28,16c-0.2-0.1-0.5-0.3-0.4-0.6c0-0.3,0.2-0.5,0.5-0.6c0.2-0.1,0.4,0,0.5,0.2C28.9,15.2,28.7,15.4,28.7,15.4
					z"/>
			</g>
		</g>
	</g>
	<g>
		<g>
			<g>
				<path class="st0" d="M31.9,14.4c0,0,0-0.5-0.5-0.8c-0.2-0.2-0.6-0.3-1-0.1c-0.4,0.1-0.7,0.5-0.7,0.9s0.3,0.8,0.6,1
					c0.4,0.2,0.8,0.1,1-0.1C31.9,14.9,31.9,14.4,31.9,14.4s0.2,0.5-0.4,1c-0.3,0.2-0.8,0.4-1.3,0.2s-0.9-0.7-0.9-1.3s0.5-1.1,1-1.3
					c0.5-0.1,1,0,1.2,0.3C32.1,14,31.9,14.5,31.9,14.4z"/>
			</g>
		</g>
	</g>
	<g>
		<g>
			<g>
				<path class="st0" d="M30.7,17.7c0,0,0-0.3-0.3-0.5c-0.1-0.1-0.4-0.1-0.6-0.1c-0.2,0.1-0.4,0.3-0.4,0.5s0.1,0.5,0.3,0.6
					c0.2,0.1,0.4,0.1,0.6,0C30.7,18,30.7,17.7,30.7,17.7s0.1,0.3-0.2,0.7c-0.2,0.2-0.5,0.3-0.8,0.2c-0.3-0.1-0.6-0.4-0.6-0.9
					c0-0.4,0.3-0.8,0.7-0.8c0.3-0.1,0.6,0,0.8,0.2C30.8,17.4,30.7,17.7,30.7,17.7z"/>
			</g>
		</g>
	</g>
	<g>
		<g>
			<g>
				<path class="st0" d="M41.5,24.7c0,0,0-0.2-0.2-0.3c-0.2-0.1-0.6,0-0.6,0.3s0.3,0.5,0.6,0.3C41.5,24.9,41.5,24.6,41.5,24.7
					c0,0,0.1,0.2-0.1,0.5c-0.1,0.1-0.3,0.2-0.6,0.2c-0.3-0.1-0.5-0.3-0.5-0.7c0-0.3,0.2-0.6,0.5-0.6c0.3-0.1,0.5,0,0.6,0.2
					C41.6,24.5,41.5,24.7,41.5,24.7z"/>
			</g>
		</g>
	</g>
	<g>
		<g>
			<g>
				<path class="st0" d="M24.4,13.8c0,0-0.2,0-0.5,0.1s-0.7,0.2-1.3,0.4c-1,0.4-2.5,1-3.8,2.1s-2.3,2.3-2.9,3.3
					c-0.3,0.5-0.5,0.9-0.7,1.2c-0.1,0.3-0.2,0.5-0.2,0.5s0.1-0.2,0.2-0.5c0.1-0.3,0.3-0.8,0.5-1.3c0.5-1,1.5-2.4,2.8-3.5
					c1.4-1.1,2.9-1.7,4-2c0.6-0.1,1-0.2,1.3-0.2C24.2,13.8,24.4,13.8,24.4,13.8z"/>
			</g>
		</g>
	</g>
	<g>
		<g>
			<g>
				<path class="st0" d="M26.4,14.9c0,0-0.8,0.2-1.8,0.3s-1.8,0.2-1.8,0.2s0.7-0.5,1.7-0.6C25.6,14.7,26.4,14.9,26.4,14.9z"/>
			</g>
		</g>
	</g>
	<g>
		<g>
			<g>
				<path class="st0" d="M43.2,42.8c0,0-0.4,0.4-1,0.9c-0.7,0.5-1.6,1.2-2.8,1.7c-1.2,0.6-2.4,0.9-3.2,1c-0.9,0.2-1.4,0.2-1.4,0.2
					s0.5-0.1,1.3-0.4c0.8-0.3,1.9-0.7,3.1-1.2c1.2-0.5,2.2-1.1,2.9-1.5S43.2,42.8,43.2,42.8z"/>
			</g>
		</g>
	</g>
	<g>
		<g>
			<g>
				<path class="st0" d="M29.9,48.3c0,0-1.8-0.4-4-1.1c-2.2-0.7-4-1.4-4-1.4s1.9,0.3,4.1,1C28.3,47.5,29.9,48.3,29.9,48.3z"/>
			</g>
		</g>
	</g>
	<g>
		<g>
			<g>
				<path class="st0" d="M29.2,46.3c0,0-0.9-0.1-2-0.5S25.3,45,25.3,45s1,0.1,2,0.4C28.4,45.8,29.2,46.3,29.2,46.3z"/>
			</g>
		</g>
	</g>
	<g>
		<g>
			<g>
				<path class="st0" d="M35.4,32.2c0,0-0.2,0.3-0.6,0.8c-0.4,0.4-1.1,1-1.9,1.4C32,34.8,31.2,35,30.6,35c-0.6,0-1,0-1,0
					s0.4,0,1-0.2c0.6-0.1,1.4-0.4,2.2-0.7c0.8-0.4,1.5-0.8,2-1.2C35.2,32.5,35.4,32.2,35.4,32.2z"/>
			</g>
		</g>
	</g>
	<g>
		<g>
			<g>
				<path class="st0" d="M36.4,39.1c0,0,0-0.5,0-1.3c0.1-0.8,0.3-1.9,0.7-3c0.5-1.1,1.1-2.1,1.7-2.7c0.5-0.6,0.9-0.9,0.9-0.9
					s-0.3,0.4-0.8,1s-1,1.6-1.5,2.7c-0.5,1.1-0.8,2.1-0.9,2.9C36.5,38.6,36.4,39.1,36.4,39.1z"/>
			</g>
		</g>
	</g>
	<g>
		<g>
			<g>
				<path class="st0" d="M25.7,19.1c0,0,0.1,0.4,0.1,1c0.1,0.6,0.1,1.5,0,2.4c-0.2,1-0.6,1.8-1,2.3S24,25.5,24,25.5s0.3-0.3,0.6-0.8
					c0.3-0.5,0.6-1.3,0.8-2.2c0.2-0.9,0.2-1.7,0.2-2.4C25.7,19.6,25.7,19.1,25.7,19.1z"/>
			</g>
		</g>
	</g>
	<g>
		<g>
			<g>
				<path class="st0" d="M36,23.8c0,0-0.3-0.1-0.7-0.3c-0.4-0.2-1-0.6-1.6-1.1c-0.5-0.5-0.9-1.1-1.2-1.6c-0.2-0.5-0.3-0.8-0.3-0.8
					s0.7,1,1.7,2C35,23.1,36,23.8,36,23.8z"/>
			</g>
		</g>
	</g>
	<g>
		<g>
			<g>
				<path class="st0" d="M48.4,33.7c0,0,0-0.6,0-1.5c0-0.9-0.1-2.2-0.3-3.6s-0.5-2.7-0.8-3.6s-0.5-1.5-0.5-1.5s0.3,0.5,0.7,1.4
					s0.8,2.2,1,3.6c0.2,1.5,0.2,2.8,0.1,3.7C48.5,33.1,48.4,33.7,48.4,33.7z"/>
			</g>
		</g>
	</g>
	<g>
		<g>
			<g>
				<path class="st0" d="M38.5,15c0,0-1.2-0.8-2.9-1.5s-3.2-1.1-3.2-1.1s0.4,0,1,0.1s1.5,0.3,2.3,0.6c0.9,0.4,1.6,0.9,2,1.2
					C38.3,14.7,38.5,15,38.5,15z"/>
			</g>
		</g>
	</g>
</g>
</svg>
