<svg class="svg-icon" style="width: 1em; height: 1em;vertical-align: middle;fill: currentColor;overflow: hidden;" viewBox="0 0 1024 1024" version="1.1" xmlns="http://www.w3.org/2000/svg"><path d="M597.333333 955.733333c-121.890133 0-227.584-43.8784-314.146133-130.440533C197.205333 739.293867 153.6 633.9072 153.6 512c0-121.873067 43.588267-227.549867 129.536-314.112C369.783467 111.854933 475.477333 68.266667 597.333333 68.266667c100.6592 0 190.583467 29.9008 267.246934 88.8832A17.0496 17.0496 0 1 1 854.186667 187.733333c-90.146133 0-167.338667 31.914667-230.280534 94.839467C560.964267 345.514667 529.066667 422.7072 529.066667 512s31.8976 166.485333 94.839466 229.4272C686.848 804.369067 764.040533 836.266667 853.333333 836.266667a17.032533 17.032533 0 0 1 10.4448 30.549333C787.677867 925.815467 698.026667 955.733333 597.333333 955.733333z m0-853.333333c-112.520533 0-210.1248 40.2432-290.065066 119.620267C227.976533 301.8752 187.733333 399.4624 187.733333 512c0 112.520533 40.226133 209.800533 119.586134 289.160533C387.242667 881.083733 484.829867 921.6 597.333333 921.6c75.758933 0 144.6912-18.2784 205.4656-54.4256-77.499733-10.154667-145.6128-44.202667-203.025066-101.597867C530.193067 695.978667 494.933333 610.679467 494.933333 512s35.259733-183.995733 104.840534-253.559467c57.514667-57.514667 125.7984-91.5968 203.502933-101.6832C742.126933 120.661333 673.0752 102.4 597.333333 102.4z"  /></svg>